<?xml version="1.0" encoding="UTF-8"?>
<svg id="Layer_1" data-name="Layer 1" xmlns="http://www.w3.org/2000/svg" version="1.1" viewBox="0 0 36 36">
  <defs>
    <style>
      .cls-1 {
        fill: #fafafa;
        fill-rule: evenodd;
        stroke-width: 0px;
      }
    </style>
  </defs>
  <path class="cls-1" d="M4.5,4.3c0,.1,2.2,3.2,4.7,6.9,2.5,3.6,4.8,7,5.2,7.5.3.5.6.9.6.9s-.1.2-.3.3c-.1.2-.6.7-.9,1.1-.4.4-1,1.1-1.4,1.6-.4.4-1.1,1.2-1.5,1.8-.4.5-1.2,1.4-1.8,2.1-1.6,1.9-1.9,2.2-3.1,3.6-.7.8-1.3,1.5-1.4,1.7s-.2.3-.2.3.4,0,1.2,0h1.2l1.3-1.5c.7-.8,1.4-1.7,1.6-1.8.3-.4,2.7-3.2,2.9-3.4,0,0,.2-.2.3-.3,0,0,.5-.6,1.1-1.2.5-.6,1-1.1,1-1.1,0,0,.3-.3.6-.7.3-.4.6-.7.6-.7s1.7,2.4,3.7,5.3c2,2.9,3.7,5.3,3.7,5.4h0c0,.1,4.1.1,4.1.1,3.3,0,4,0,4,0,0,0-2-2.9-6.9-10.1-3.6-5.2-4.1-5.9-4-6,0,0,.5-.6,3.7-4.3.6-.6,1.3-1.5,1.7-2s.8-.9.8-1c0-.1.6-.6,1-1.2.5-.6,1.3-1.5,1.8-2.1.5-.6,1-1.1,1-1.1,0,0,0,0-1.2,0h-1.2l-.5.6c-.7.8-2,2.3-2.4,2.7-.2.2-.4.4-.4.5,0,0-.3.3-.4.4s-.7.8-1.3,1.6c-.6.7-1.1,1.3-1.1,1.3,0,0-.1.2-.3.3-.3.3-.5.6-1.8,2.1-.5.6-.6.7-.6.6,0,0-1.6-2.3-3.5-5.1l-3.5-5.1h-4.1s-4.1,0-4.1,0l.2.2M7.7,5.9s.8,1.1,1.7,2.4c1.7,2.4,8.4,12,12.7,18.2,1.4,2,2.5,3.6,2.5,3.6,0,0,.4,0,1.9,0h1.8s-4.8-6.9-4.8-6.9c-2.6-3.8-6.5-9.2-8.5-12.2l-3.7-5.3h-1.9s-1.9,0-1.9,0h0"/>
</svg>